<svg width="16" height="16" viewBox="0 0 16 16" fill="none" xmlns="http://www.w3.org/2000/svg">
<path d="M11.9987 4.77301C11.9587 4.76634 11.9121 4.76634 11.8721 4.77301C10.9521 4.73968 10.2188 3.98634 10.2188 3.05301C10.2188 2.09968 10.9854 1.33301 11.9387 1.33301C12.8921 1.33301 13.6587 2.10634 13.6587 3.05301C13.6521 3.98634 12.9187 4.73968 11.9987 4.77301Z" stroke="#B9BDCB" stroke-linecap="round" stroke-linejoin="round"/>
<path d="M11.313 9.62645C12.2263 9.77978 13.233 9.61978 13.9396 9.14645C14.8796 8.51978 14.8796 7.49312 13.9396 6.86645C13.2263 6.39312 12.2063 6.23311 11.293 6.39311" stroke="#B9BDCB" stroke-linecap="round" stroke-linejoin="round"/>
<path d="M3.98031 4.77301C4.02031 4.76634 4.06698 4.76634 4.10698 4.77301C5.02698 4.73968 5.76031 3.98634 5.76031 3.05301C5.76031 2.09968 4.99365 1.33301 4.04031 1.33301C3.08698 1.33301 2.32031 2.10634 2.32031 3.05301C2.32698 3.98634 3.06031 4.73968 3.98031 4.77301Z" stroke="#B9BDCB" stroke-linecap="round" stroke-linejoin="round"/>
<path d="M4.6676 9.62645C3.75427 9.77978 2.7476 9.61978 2.04094 9.14645C1.10094 8.51978 1.10094 7.49312 2.04094 6.86645C2.75427 6.39312 3.77427 6.23311 4.6876 6.39311" stroke="#B9BDCB" stroke-linecap="round" stroke-linejoin="round"/>
<path d="M7.99875 9.75348C7.95875 9.74681 7.91208 9.74681 7.87208 9.75348C6.95208 9.72015 6.21875 8.96681 6.21875 8.03348C6.21875 7.08014 6.98542 6.31348 7.93875 6.31348C8.89208 6.31348 9.65875 7.08681 9.65875 8.03348C9.65208 8.96681 8.91875 9.72681 7.99875 9.75348Z" stroke="#B9BDCB" stroke-linecap="round" stroke-linejoin="round"/>
<path d="M6.06047 11.8532C5.12047 12.4799 5.12047 13.5066 6.06047 14.1332C7.12714 14.8466 8.8738 14.8466 9.94047 14.1332C10.8805 13.5066 10.8805 12.4799 9.94047 11.8532C8.88047 11.1466 7.12714 11.1466 6.06047 11.8532Z" stroke="#B9BDCB" stroke-linecap="round" stroke-linejoin="round"/>
</svg>
